%
M48
M72
T01C0.0120
T02C0.0400
%
T01
X4190Y1120
X4550Y3180
X6640Y4610
X7680Y3770
X8980Y4470
X10120Y4350
X12020Y5570
X11500Y6280
X10440Y6850
X9520Y7090
X8860Y6850
X7690Y6360
X7710Y5770
X8820Y7950
X7790Y8260
X7000Y8330
X6280Y8330
X5800Y8210
X6100Y9210
X4880Y7290
X4740Y5460
X8940Y1910
X11850Y2030
X11860Y1130
X13420Y5570
X11190Y8090
X11180Y8650
X11500Y9800
X11540Y10530
X9720Y9590
X12760Y8570
T02
X3772Y6322
X3772Y5182
M30
