G75*
G70*
%OFA0B0*%
%FSLAX24Y24*%
%IPPOS*%
%LPD*%
%AMOC8*
5,1,8,0,0,1.08239X$1,22.5*
%
%ADD10C,0.0004*%
%ADD11C,0.0110*%
%ADD12C,0.0050*%
%ADD13C,0.0080*%
%ADD14C,0.0030*%
%ADD15C,0.0060*%
%ADD16R,0.0197X0.0256*%
%ADD17C,0.0020*%
%ADD18R,0.0230X0.0230*%
%ADD19R,0.0118X0.0236*%
%ADD20R,0.0160X0.0280*%
%ADD21C,0.0160*%
%ADD22R,0.0236X0.0118*%
%ADD23C,0.0040*%
%ADD24C,0.0220*%
%ADD25R,0.0374X0.0197*%
%ADD26R,0.0280X0.0160*%
%ADD27R,0.0180X0.0230*%
%ADD28C,0.0010*%
%ADD29C,0.0000*%
D10*
X003138Y000371D02*
X014555Y000371D01*
X014555Y007064D01*
X011602Y011001D01*
X006090Y011001D01*
X003138Y007064D01*
X003138Y000371D01*
D11*
X004011Y004163D02*
X004011Y004557D01*
X003815Y004360D02*
X004208Y004360D01*
X004069Y006840D02*
X004069Y007234D01*
D12*
X005422Y007928D02*
X005422Y005172D01*
X008177Y005172D01*
X008177Y005211D02*
X008177Y007928D01*
X005422Y007928D01*
X005800Y009390D02*
X005800Y009990D01*
X007400Y009990D01*
X007400Y009390D01*
X005800Y009390D01*
X006584Y010240D02*
X006584Y010420D01*
X006494Y010330D02*
X006674Y010330D01*
X007083Y010375D02*
X007128Y010330D01*
X007218Y010330D01*
X007263Y010285D01*
X007263Y010240D01*
X007218Y010195D01*
X007128Y010195D01*
X007083Y010240D01*
X007083Y010375D02*
X007083Y010420D01*
X007128Y010465D01*
X007218Y010465D01*
X007263Y010420D01*
X006085Y010330D02*
X005905Y010330D01*
X009490Y005206D02*
X010749Y005206D01*
X010749Y004694D01*
X009490Y004694D01*
X009490Y005206D01*
X003677Y004492D02*
X003677Y004375D01*
X003619Y004317D01*
X003385Y004317D01*
X003327Y004375D01*
X003327Y004492D01*
X003385Y004550D01*
X003619Y004550D01*
X003677Y004492D01*
X003502Y004182D02*
X003385Y004182D01*
X003327Y004124D01*
X003327Y003948D01*
X003677Y003948D01*
X003560Y003948D02*
X003560Y004124D01*
X003502Y004182D01*
X003677Y003820D02*
X003677Y003703D01*
X003677Y003761D02*
X003327Y003761D01*
X003327Y003703D02*
X003327Y003820D01*
X003677Y003568D02*
X003677Y003335D01*
X003327Y003335D01*
D13*
X004560Y002259D02*
X004560Y001921D01*
X005014Y002409D02*
X005225Y002409D01*
X005680Y002259D02*
X005680Y001921D01*
X004022Y004752D02*
X003522Y004752D01*
X003272Y005002D01*
X003272Y005502D01*
X003522Y005752D01*
X003272Y006002D01*
X003272Y006502D01*
X003522Y006752D01*
X004022Y006752D01*
X004272Y006502D01*
X004272Y006002D01*
X004022Y005752D01*
X004272Y005502D01*
X004272Y005002D01*
X004022Y004752D01*
X005422Y005369D02*
X005618Y005172D01*
X008020Y005172D02*
X008177Y005172D01*
X008177Y005900D01*
X009411Y005206D02*
X009411Y004694D01*
X010483Y003961D02*
X010483Y003780D01*
X010605Y003872D01*
X010483Y003780D02*
X010483Y003599D01*
X010605Y003694D02*
X010489Y003770D01*
X010828Y004694D02*
X010828Y005206D01*
X008177Y007200D02*
X008177Y007928D01*
X007449Y007928D01*
X006150Y007928D02*
X005422Y007928D01*
X005422Y007200D01*
X008106Y009439D02*
X008106Y009620D01*
X007984Y009528D01*
X008106Y009620D02*
X008106Y009801D01*
X007984Y009706D02*
X008100Y009630D01*
X009232Y009007D02*
X009232Y008870D01*
X009232Y009007D02*
X009370Y009007D01*
X010669Y009007D02*
X010807Y009007D01*
X010807Y008870D01*
X010807Y007570D02*
X010807Y007433D01*
X010669Y007433D01*
X009370Y007433D02*
X009232Y007570D01*
X011744Y002449D02*
X011955Y002449D01*
X012410Y002299D02*
X012410Y001961D01*
X011290Y001961D02*
X011290Y002299D01*
D14*
X009085Y001035D02*
X009085Y000745D01*
X008988Y000745D02*
X009182Y000745D01*
X008887Y000793D02*
X008839Y000745D01*
X008694Y000745D01*
X008694Y001035D01*
X008839Y001035D01*
X008887Y000987D01*
X008887Y000938D01*
X008839Y000890D01*
X008694Y000890D01*
X008593Y000842D02*
X008593Y000793D01*
X008544Y000745D01*
X008448Y000745D01*
X008399Y000793D01*
X008298Y000793D02*
X008250Y000745D01*
X008153Y000745D01*
X008105Y000793D01*
X008105Y001035D01*
X008298Y001035D02*
X008298Y000793D01*
X008399Y000938D02*
X008448Y000890D01*
X008544Y000890D01*
X008593Y000842D01*
X008593Y000987D02*
X008544Y001035D01*
X008448Y001035D01*
X008399Y000987D01*
X008399Y000938D01*
X008839Y000890D02*
X008887Y000842D01*
X008887Y000793D01*
X008988Y000938D02*
X009085Y001035D01*
X009820Y007820D02*
X010370Y007820D01*
X010370Y008620D01*
X010460Y008430D02*
X010530Y008410D01*
X010460Y008430D02*
X010420Y008370D01*
X010459Y008430D02*
X010470Y008412D01*
X010478Y008393D01*
X010482Y008373D01*
X010483Y008352D01*
X010479Y008331D01*
X010472Y008312D01*
X010462Y008294D01*
X010449Y008278D01*
X010432Y008265D01*
X010414Y008255D01*
X010395Y008248D01*
X010374Y008245D01*
X010353Y008246D01*
X010333Y008250D01*
X010314Y008259D01*
X010296Y008270D01*
X010281Y008284D01*
X010269Y008301D01*
X010260Y008320D01*
X010255Y008340D01*
X010253Y008361D01*
X010255Y008381D01*
X010261Y008401D01*
X010270Y008420D01*
X009990Y007910D02*
X009910Y007910D01*
X009990Y007910D02*
X010030Y007870D01*
X009990Y007910D02*
X009976Y007895D01*
X009964Y007879D01*
X009955Y007860D01*
X009950Y007841D01*
X009948Y007820D01*
X009950Y007800D01*
X009955Y007780D01*
X009964Y007762D01*
X009975Y007745D01*
X009990Y007730D01*
X010006Y007719D01*
X010025Y007710D01*
X010045Y007705D01*
X010065Y007703D01*
X010085Y007705D01*
X010105Y007710D01*
X010124Y007719D01*
X010140Y007730D01*
X010155Y007745D01*
X010166Y007762D01*
X010175Y007780D01*
X010180Y007800D01*
X010182Y007820D01*
X010180Y007841D01*
X010175Y007860D01*
X010166Y007879D01*
X010154Y007895D01*
X010140Y007910D01*
X009570Y008470D02*
X009588Y008455D01*
X009607Y008444D01*
X009629Y008435D01*
X009651Y008430D01*
X009674Y008429D01*
X009697Y008432D01*
X009719Y008438D01*
X009739Y008447D01*
X009758Y008460D01*
X009775Y008476D01*
X009789Y008494D01*
X009800Y008514D01*
X009807Y008536D01*
X009811Y008559D01*
X009811Y008581D01*
X009807Y008604D01*
X009800Y008626D01*
X009789Y008646D01*
X009775Y008664D01*
X009758Y008680D01*
X009739Y008693D01*
X009719Y008702D01*
X009697Y008708D01*
X009674Y008711D01*
X009651Y008710D01*
X009629Y008705D01*
X009607Y008696D01*
X009588Y008685D01*
X009570Y008670D01*
X009610Y008770D01*
X009570Y008670D02*
X009660Y008640D01*
X008226Y008645D02*
X008226Y008680D01*
X008191Y008715D01*
X008121Y008715D01*
X008086Y008680D01*
X008005Y008680D02*
X008005Y008610D01*
X007970Y008575D01*
X007865Y008575D01*
X007935Y008575D02*
X008005Y008505D01*
X008086Y008505D02*
X008226Y008645D01*
X008226Y008505D02*
X008086Y008505D01*
X008005Y008680D02*
X007970Y008715D01*
X007865Y008715D01*
X007865Y008505D01*
X007437Y008700D02*
X007243Y008700D01*
X007388Y008845D01*
X007388Y008555D01*
X007142Y008603D02*
X007142Y008845D01*
X006948Y008845D02*
X006948Y008603D01*
X006997Y008555D01*
X007094Y008555D01*
X007142Y008603D01*
X006847Y008555D02*
X006654Y008555D01*
X006847Y008748D01*
X006847Y008797D01*
X006799Y008845D01*
X006702Y008845D01*
X006654Y008797D01*
X006553Y008797D02*
X006504Y008845D01*
X006408Y008845D01*
X006359Y008797D01*
X006258Y008748D02*
X006161Y008845D01*
X006065Y008748D01*
X006065Y008555D01*
X006258Y008555D02*
X006258Y008748D01*
X006258Y008700D02*
X006065Y008700D01*
X006359Y008603D02*
X006408Y008555D01*
X006504Y008555D01*
X006553Y008603D01*
X006553Y008652D01*
X006504Y008700D01*
X006456Y008700D01*
X006504Y008700D02*
X006553Y008748D01*
X006553Y008797D01*
D15*
X007953Y008972D02*
X008146Y008972D01*
X008146Y009148D02*
X007953Y009148D01*
X008913Y009532D02*
X009106Y009532D01*
X009106Y009708D02*
X008913Y009708D01*
X011673Y009508D02*
X011866Y009508D01*
X011866Y009332D02*
X011673Y009332D01*
X011673Y008908D02*
X011866Y008908D01*
X011866Y008732D02*
X011673Y008732D01*
X011673Y008308D02*
X011866Y008308D01*
X011866Y008132D02*
X011673Y008132D01*
X011673Y007708D02*
X011866Y007708D01*
X011866Y007532D02*
X011673Y007532D01*
X011673Y007108D02*
X011866Y007108D01*
X011866Y006932D02*
X011673Y006932D01*
X012403Y006608D02*
X012596Y006608D01*
X012596Y006432D02*
X012403Y006432D01*
X012403Y006088D02*
X012596Y006088D01*
X012596Y005912D02*
X012403Y005912D01*
X012953Y004934D02*
X011833Y004934D01*
X011833Y004414D01*
X012953Y004414D01*
X012953Y004934D01*
X013294Y004944D02*
X014414Y004944D01*
X014414Y004424D01*
X013294Y004424D01*
X013294Y004944D01*
X013773Y005912D02*
X013966Y005912D01*
X013966Y006088D02*
X013773Y006088D01*
X013773Y006432D02*
X013966Y006432D01*
X013966Y006608D02*
X013773Y006608D01*
X010908Y006386D02*
X010908Y006194D01*
X010731Y006194D02*
X010731Y006386D01*
X010188Y006386D02*
X010188Y006194D01*
X010011Y006194D02*
X010011Y006386D01*
X009136Y005668D02*
X008943Y005668D01*
X008943Y005492D02*
X009136Y005492D01*
X007318Y004126D02*
X007318Y003934D01*
X007141Y003934D02*
X007141Y004126D01*
X006588Y004126D02*
X006588Y003934D01*
X006411Y003934D02*
X006411Y004126D01*
X005988Y004126D02*
X005988Y003934D01*
X005811Y003934D02*
X005811Y004126D01*
X005673Y004335D02*
X005673Y003745D01*
X005669Y003726D01*
X005663Y003709D01*
X005653Y003692D01*
X005641Y003678D01*
X005626Y003666D01*
X005610Y003656D01*
X005592Y003650D01*
X005573Y003646D01*
X005554Y003646D01*
X004925Y003646D01*
X004906Y003646D01*
X004887Y003650D01*
X004869Y003656D01*
X004853Y003666D01*
X004838Y003678D01*
X004826Y003692D01*
X004816Y003709D01*
X004810Y003726D01*
X004806Y003745D01*
X004806Y004335D01*
X004810Y004354D01*
X004816Y004371D01*
X004826Y004388D01*
X004838Y004402D01*
X004853Y004414D01*
X004869Y004424D01*
X004887Y004430D01*
X004906Y004434D01*
X004925Y004434D01*
X005554Y004434D01*
X005554Y004435D02*
X005573Y004435D01*
X005592Y004431D01*
X005610Y004425D01*
X005626Y004416D01*
X005641Y004403D01*
X005653Y004389D01*
X005663Y004372D01*
X005669Y004354D01*
X005673Y004336D01*
X004818Y006014D02*
X004818Y006206D01*
X004641Y006206D02*
X004641Y006014D01*
X004568Y002405D02*
X004568Y001775D01*
X005671Y001775D01*
X005671Y002405D01*
X004568Y002405D01*
X006233Y001308D02*
X006426Y001308D01*
X006426Y001132D02*
X006233Y001132D01*
X009353Y003692D02*
X009546Y003692D01*
X009546Y003868D02*
X009353Y003868D01*
X011298Y002445D02*
X011298Y001815D01*
X012401Y001815D01*
X012401Y002445D01*
X011298Y002445D01*
D16*
X011475Y002593D03*
X012224Y002593D03*
X012224Y001667D03*
X011850Y001667D03*
X011475Y001667D03*
X005494Y001627D03*
X005120Y001627D03*
X004745Y001627D03*
X004745Y002553D03*
X005494Y002553D03*
D17*
X006320Y003330D02*
X006320Y003550D01*
X006430Y003550D01*
X006466Y003513D01*
X006466Y003440D01*
X006430Y003403D01*
X006320Y003403D01*
X006393Y003403D02*
X006466Y003330D01*
X006541Y003440D02*
X006687Y003440D01*
X006651Y003330D02*
X006651Y003550D01*
X006541Y003440D01*
X007040Y003377D02*
X007076Y003340D01*
X007150Y003340D01*
X007186Y003377D01*
X007261Y003340D02*
X007407Y003487D01*
X007407Y003523D01*
X007371Y003560D01*
X007297Y003560D01*
X007261Y003523D01*
X007186Y003523D02*
X007150Y003560D01*
X007076Y003560D01*
X007040Y003523D01*
X007040Y003377D01*
X007261Y003340D02*
X007407Y003340D01*
X005587Y004197D02*
X005551Y004160D01*
X005477Y004160D01*
X005441Y004197D01*
X005441Y004270D02*
X005514Y004307D01*
X005551Y004307D01*
X005587Y004270D01*
X005587Y004197D01*
X005441Y004270D02*
X005441Y004380D01*
X005587Y004380D01*
X005366Y004343D02*
X005366Y004270D01*
X005330Y004233D01*
X005220Y004233D01*
X005293Y004233D02*
X005366Y004160D01*
X005220Y004160D02*
X005220Y004380D01*
X005330Y004380D01*
X005366Y004343D01*
X004749Y004310D02*
X004602Y004310D01*
X004676Y004310D02*
X004676Y004530D01*
X004602Y004457D01*
X004528Y004530D02*
X004455Y004530D01*
X004492Y004530D02*
X004492Y004347D01*
X004455Y004310D01*
X004418Y004310D01*
X004381Y004347D01*
X004307Y004347D02*
X004271Y004310D01*
X004197Y004310D01*
X004160Y004347D01*
X004197Y004420D02*
X004160Y004457D01*
X004160Y004493D01*
X004197Y004530D01*
X004271Y004530D01*
X004307Y004493D01*
X004271Y004420D02*
X004307Y004383D01*
X004307Y004347D01*
X004271Y004420D02*
X004197Y004420D01*
X004256Y005908D02*
X004403Y005908D01*
X004440Y005945D01*
X004440Y006018D01*
X004403Y006055D01*
X004440Y006129D02*
X004440Y006276D01*
X004440Y006202D02*
X004219Y006202D01*
X004293Y006129D01*
X004256Y006055D02*
X004219Y006018D01*
X004219Y005945D01*
X004256Y005908D01*
X004341Y002890D02*
X004231Y002780D01*
X004377Y002780D01*
X004341Y002670D02*
X004341Y002890D01*
X004156Y002853D02*
X004120Y002890D01*
X004046Y002890D01*
X004010Y002853D01*
X004010Y002707D01*
X004046Y002670D01*
X004120Y002670D01*
X004156Y002707D01*
X004490Y001410D02*
X004490Y001190D01*
X004636Y001190D01*
X004711Y001190D02*
X004711Y001410D01*
X004821Y001410D01*
X004857Y001373D01*
X004857Y001227D01*
X004821Y001190D01*
X004711Y001190D01*
X004931Y001227D02*
X004931Y001373D01*
X004968Y001410D01*
X005042Y001410D01*
X005078Y001373D01*
X005078Y001227D01*
X005042Y001190D01*
X004968Y001190D01*
X004931Y001227D01*
X005152Y001227D02*
X005189Y001190D01*
X005263Y001190D01*
X005299Y001227D01*
X005299Y001300D01*
X005263Y001337D01*
X005226Y001337D01*
X005152Y001300D01*
X005152Y001410D01*
X005299Y001410D01*
X005373Y001410D02*
X005373Y001263D01*
X005447Y001190D01*
X005520Y001263D01*
X005520Y001410D01*
X005594Y001373D02*
X005594Y001227D01*
X005741Y001373D01*
X005741Y001227D01*
X005705Y001190D01*
X005631Y001190D01*
X005594Y001227D01*
X005594Y001373D02*
X005631Y001410D01*
X005705Y001410D01*
X005741Y001373D01*
X006000Y001332D02*
X006036Y001295D01*
X006110Y001295D01*
X006146Y001332D01*
X006221Y001332D02*
X006257Y001295D01*
X006331Y001295D01*
X006367Y001332D01*
X006367Y001368D01*
X006331Y001405D01*
X006221Y001405D01*
X006221Y001332D01*
X006221Y001405D02*
X006294Y001478D01*
X006367Y001515D01*
X006146Y001478D02*
X006110Y001515D01*
X006036Y001515D01*
X006000Y001478D01*
X006000Y001332D01*
X006146Y000980D02*
X006110Y000943D01*
X006110Y000797D01*
X006146Y000760D01*
X006220Y000760D01*
X006256Y000797D01*
X006331Y000797D02*
X006367Y000760D01*
X006441Y000760D01*
X006477Y000797D01*
X006477Y000833D01*
X006441Y000870D01*
X006404Y000870D01*
X006441Y000870D02*
X006477Y000907D01*
X006477Y000943D01*
X006441Y000980D01*
X006367Y000980D01*
X006331Y000943D01*
X006256Y000943D02*
X006220Y000980D01*
X006146Y000980D01*
X010013Y004160D02*
X010013Y004270D01*
X010086Y004343D01*
X010086Y004380D01*
X010161Y004307D02*
X010234Y004380D01*
X010234Y004160D01*
X010161Y004160D02*
X010307Y004160D01*
X010013Y004270D02*
X009940Y004343D01*
X009940Y004380D01*
X009940Y005595D02*
X009940Y005815D01*
X010050Y005815D01*
X010086Y005778D01*
X010086Y005705D01*
X010050Y005668D01*
X009940Y005668D01*
X010013Y005668D02*
X010086Y005595D01*
X010161Y005632D02*
X010161Y005705D01*
X010271Y005705D01*
X010307Y005668D01*
X010307Y005632D01*
X010271Y005595D01*
X010197Y005595D01*
X010161Y005632D01*
X010161Y005705D02*
X010234Y005778D01*
X010307Y005815D01*
X010660Y005795D02*
X010660Y005575D01*
X010660Y005648D02*
X010770Y005648D01*
X010806Y005685D01*
X010806Y005758D01*
X010770Y005795D01*
X010660Y005795D01*
X010881Y005795D02*
X011027Y005795D01*
X011027Y005758D01*
X010881Y005612D01*
X010881Y005575D01*
X010806Y005575D02*
X010733Y005648D01*
X011340Y005860D02*
X011340Y006080D01*
X011450Y006080D01*
X011486Y006043D01*
X011486Y005970D01*
X011450Y005933D01*
X011340Y005933D01*
X011413Y005933D02*
X011486Y005860D01*
X011561Y005860D02*
X011707Y005860D01*
X011634Y005860D02*
X011634Y006080D01*
X011561Y006007D01*
X011781Y006007D02*
X011855Y006080D01*
X011855Y005860D01*
X011928Y005860D02*
X011781Y005860D01*
X011801Y006471D02*
X011764Y006508D01*
X011911Y006654D01*
X011911Y006508D01*
X011874Y006471D01*
X011801Y006471D01*
X011764Y006508D02*
X011764Y006654D01*
X011801Y006691D01*
X011874Y006691D01*
X011911Y006654D01*
X011690Y006471D02*
X011543Y006471D01*
X011616Y006471D02*
X011616Y006691D01*
X011543Y006618D01*
X011469Y006654D02*
X011469Y006581D01*
X011432Y006544D01*
X011322Y006544D01*
X011322Y006471D02*
X011322Y006691D01*
X011432Y006691D01*
X011469Y006654D01*
X011395Y006544D02*
X011469Y006471D01*
X010889Y006899D02*
X010852Y006862D01*
X010779Y006862D01*
X010742Y006899D01*
X010889Y007046D01*
X010889Y006899D01*
X010889Y007046D02*
X010852Y007083D01*
X010779Y007083D01*
X010742Y007046D01*
X010742Y006899D01*
X010668Y006899D02*
X010631Y006862D01*
X010558Y006862D01*
X010521Y006899D01*
X010521Y006972D02*
X010594Y007009D01*
X010631Y007009D01*
X010668Y006972D01*
X010668Y006899D01*
X010521Y006972D02*
X010521Y007083D01*
X010668Y007083D01*
X010447Y007046D02*
X010447Y006899D01*
X010410Y006862D01*
X010337Y006862D01*
X010300Y006899D01*
X010447Y007046D01*
X010410Y007083D01*
X010337Y007083D01*
X010300Y007046D01*
X010300Y006899D01*
X010226Y006899D02*
X010226Y006936D01*
X010189Y006972D01*
X010079Y006972D01*
X010079Y006899D01*
X010116Y006862D01*
X010189Y006862D01*
X010226Y006899D01*
X010152Y007046D02*
X010079Y006972D01*
X010005Y006972D02*
X009858Y006972D01*
X009784Y006899D02*
X009784Y007083D01*
X009637Y007083D02*
X009637Y006899D01*
X009674Y006862D01*
X009747Y006862D01*
X009784Y006899D01*
X009563Y006972D02*
X009526Y006936D01*
X009416Y006936D01*
X009416Y006862D02*
X009416Y007083D01*
X009526Y007083D01*
X009563Y007046D01*
X009563Y006972D01*
X009342Y006862D02*
X009342Y007083D01*
X009268Y007009D01*
X009195Y007083D01*
X009195Y006862D01*
X009174Y006090D02*
X009174Y005870D01*
X009101Y005870D02*
X009247Y005870D01*
X009101Y006017D02*
X009174Y006090D01*
X009026Y006053D02*
X009026Y005980D01*
X008990Y005943D01*
X008880Y005943D01*
X008953Y005943D02*
X009026Y005870D01*
X008880Y005870D02*
X008880Y006090D01*
X008990Y006090D01*
X009026Y006053D01*
X010152Y007046D02*
X010226Y007083D01*
X012230Y007148D02*
X012230Y007002D01*
X012266Y006965D01*
X012340Y006965D01*
X012376Y007002D01*
X012451Y007002D02*
X012487Y006965D01*
X012561Y006965D01*
X012597Y007002D01*
X012597Y007148D01*
X012561Y007185D01*
X012487Y007185D01*
X012451Y007148D01*
X012451Y007112D01*
X012487Y007075D01*
X012597Y007075D01*
X012376Y007148D02*
X012340Y007185D01*
X012266Y007185D01*
X012230Y007148D01*
X012266Y007585D02*
X012340Y007585D01*
X012376Y007622D01*
X012451Y007622D02*
X012451Y007658D01*
X012487Y007695D01*
X012561Y007695D01*
X012597Y007658D01*
X012597Y007622D01*
X012561Y007585D01*
X012487Y007585D01*
X012451Y007622D01*
X012487Y007695D02*
X012451Y007732D01*
X012451Y007768D01*
X012487Y007805D01*
X012561Y007805D01*
X012597Y007768D01*
X012597Y007732D01*
X012561Y007695D01*
X012376Y007768D02*
X012340Y007805D01*
X012266Y007805D01*
X012230Y007768D01*
X012230Y007622D01*
X012266Y007585D01*
X012266Y008165D02*
X012340Y008165D01*
X012376Y008202D01*
X012451Y008165D02*
X012597Y008165D01*
X012524Y008165D02*
X012524Y008385D01*
X012451Y008312D01*
X012376Y008348D02*
X012340Y008385D01*
X012266Y008385D01*
X012230Y008348D01*
X012230Y008202D01*
X012266Y008165D01*
X012671Y008202D02*
X012708Y008165D01*
X012782Y008165D01*
X012818Y008202D01*
X012818Y008238D01*
X012782Y008275D01*
X012745Y008275D01*
X012782Y008275D02*
X012818Y008312D01*
X012818Y008348D01*
X012782Y008385D01*
X012708Y008385D01*
X012671Y008348D01*
X012671Y008765D02*
X012818Y008765D01*
X012745Y008765D02*
X012745Y008985D01*
X012671Y008912D01*
X012524Y008985D02*
X012524Y008765D01*
X012451Y008765D02*
X012597Y008765D01*
X012451Y008912D02*
X012524Y008985D01*
X012376Y008948D02*
X012340Y008985D01*
X012266Y008985D01*
X012230Y008948D01*
X012230Y008802D01*
X012266Y008765D01*
X012340Y008765D01*
X012376Y008802D01*
X011278Y009342D02*
X011242Y009305D01*
X011168Y009305D01*
X011131Y009342D01*
X011278Y009488D01*
X011278Y009342D01*
X011131Y009342D02*
X011131Y009488D01*
X011168Y009525D01*
X011242Y009525D01*
X011278Y009488D01*
X010984Y009525D02*
X010984Y009305D01*
X010911Y009305D02*
X011057Y009305D01*
X010911Y009452D02*
X010984Y009525D01*
X010836Y009488D02*
X010800Y009525D01*
X010726Y009525D01*
X010690Y009488D01*
X010690Y009342D01*
X010726Y009305D01*
X010800Y009305D01*
X010836Y009342D01*
X009398Y009905D02*
X009251Y009905D01*
X009398Y010052D01*
X009398Y010088D01*
X009362Y010125D01*
X009288Y010125D01*
X009251Y010088D01*
X009104Y010125D02*
X009104Y009905D01*
X009031Y009905D02*
X009177Y009905D01*
X009031Y010052D02*
X009104Y010125D01*
X008956Y010088D02*
X008920Y010125D01*
X008846Y010125D01*
X008810Y010088D01*
X008810Y009942D01*
X008846Y009905D01*
X008920Y009905D01*
X008956Y009942D01*
X013059Y006677D02*
X013169Y006677D01*
X013206Y006640D01*
X013206Y006567D01*
X013169Y006530D01*
X013059Y006530D01*
X013059Y006457D02*
X013059Y006677D01*
X013133Y006530D02*
X013206Y006457D01*
X013280Y006493D02*
X013280Y006530D01*
X013317Y006567D01*
X013390Y006567D01*
X013427Y006530D01*
X013427Y006493D01*
X013390Y006457D01*
X013317Y006457D01*
X013280Y006493D01*
X013317Y006567D02*
X013280Y006604D01*
X013280Y006640D01*
X013317Y006677D01*
X013390Y006677D01*
X013427Y006640D01*
X013427Y006604D01*
X013390Y006567D01*
X013344Y006063D02*
X013271Y006063D01*
X013234Y006026D01*
X013234Y005989D01*
X013271Y005953D01*
X013381Y005953D01*
X013381Y006026D02*
X013344Y006063D01*
X013381Y006026D02*
X013381Y005879D01*
X013344Y005843D01*
X013271Y005843D01*
X013234Y005879D01*
X013160Y005843D02*
X013087Y005916D01*
X013123Y005916D02*
X013013Y005916D01*
X013013Y005843D02*
X013013Y006063D01*
X013123Y006063D01*
X013160Y006026D01*
X013160Y005953D01*
X013123Y005916D01*
X012544Y003906D02*
X012470Y003906D01*
X012433Y003869D01*
X012359Y003869D02*
X012359Y003723D01*
X012323Y003686D01*
X012249Y003686D01*
X012212Y003723D01*
X012212Y003869D01*
X012249Y003906D01*
X012323Y003906D01*
X012359Y003869D01*
X012286Y003759D02*
X012359Y003686D01*
X012433Y003686D02*
X012580Y003833D01*
X012580Y003869D01*
X012544Y003906D01*
X012580Y003686D02*
X012433Y003686D01*
X013687Y003719D02*
X013724Y003682D01*
X013797Y003682D01*
X013834Y003719D01*
X013834Y003866D01*
X013797Y003903D01*
X013724Y003903D01*
X013687Y003866D01*
X013687Y003719D01*
X013760Y003756D02*
X013834Y003682D01*
X013908Y003682D02*
X014055Y003682D01*
X013981Y003682D02*
X013981Y003903D01*
X013908Y003829D01*
X013077Y001515D02*
X012931Y001515D01*
X012856Y001478D02*
X012820Y001515D01*
X012746Y001515D01*
X012710Y001478D01*
X012710Y001332D01*
X012746Y001295D01*
X012820Y001295D01*
X012856Y001332D01*
X012931Y001332D02*
X012931Y001295D01*
X012931Y001332D02*
X013077Y001478D01*
X013077Y001515D01*
X012501Y000973D02*
X012501Y000937D01*
X012465Y000900D01*
X012501Y000863D01*
X012501Y000827D01*
X012465Y000790D01*
X012391Y000790D01*
X012354Y000827D01*
X012280Y000863D02*
X012207Y000790D01*
X012133Y000863D01*
X012133Y001010D01*
X012059Y000973D02*
X012059Y000937D01*
X012023Y000900D01*
X012059Y000863D01*
X012059Y000827D01*
X012023Y000790D01*
X011949Y000790D01*
X011912Y000827D01*
X011838Y000827D02*
X011838Y000973D01*
X011802Y001010D01*
X011728Y001010D01*
X011691Y000973D01*
X011691Y000827D01*
X011728Y000790D01*
X011802Y000790D01*
X011838Y000827D01*
X011912Y000973D02*
X011949Y001010D01*
X012023Y001010D01*
X012059Y000973D01*
X012023Y000900D02*
X011986Y000900D01*
X012280Y000863D02*
X012280Y001010D01*
X012354Y000973D02*
X012391Y001010D01*
X012465Y001010D01*
X012501Y000973D01*
X012465Y000900D02*
X012428Y000900D01*
X011617Y000827D02*
X011581Y000790D01*
X011471Y000790D01*
X011471Y001010D01*
X011581Y001010D01*
X011617Y000973D01*
X011617Y000827D01*
X011396Y000790D02*
X011250Y000790D01*
X011250Y001010D01*
X010971Y001275D02*
X010897Y001275D01*
X010861Y001312D01*
X010861Y001385D02*
X010934Y001422D01*
X010971Y001422D01*
X011007Y001385D01*
X011007Y001312D01*
X010971Y001275D01*
X010861Y001385D02*
X010861Y001495D01*
X011007Y001495D01*
X010786Y001458D02*
X010750Y001495D01*
X010676Y001495D01*
X010640Y001458D01*
X010640Y001312D01*
X010676Y001275D01*
X010750Y001275D01*
X010786Y001312D01*
D18*
X003772Y005252D03*
X003772Y006252D03*
D19*
X007889Y009062D03*
X008209Y009062D03*
X008850Y009618D03*
X009170Y009618D03*
X011610Y009418D03*
X011930Y009418D03*
X011930Y008818D03*
X011610Y008818D03*
X011610Y008218D03*
X011930Y008218D03*
X011930Y007618D03*
X011610Y007618D03*
X011610Y007018D03*
X011930Y007018D03*
X012340Y006518D03*
X012660Y006518D03*
X012660Y005998D03*
X012340Y005998D03*
X013710Y005998D03*
X014030Y005998D03*
X014030Y006518D03*
X013710Y006518D03*
X009609Y003782D03*
X009289Y003782D03*
X009200Y005578D03*
X008880Y005578D03*
X006489Y001222D03*
X006169Y001222D03*
D20*
X009450Y003780D03*
X009040Y005580D03*
X012500Y006000D03*
X012500Y006520D03*
X013870Y006520D03*
X013870Y006000D03*
X008050Y009060D03*
D21*
X009010Y009608D02*
X009010Y009632D01*
X011770Y009432D02*
X011770Y009408D01*
X011770Y008832D02*
X011770Y008808D01*
X011770Y008232D02*
X011770Y008208D01*
X011770Y007632D02*
X011770Y007608D01*
X011770Y007032D02*
X011770Y007008D01*
X007242Y004030D02*
X007218Y004030D01*
X007123Y002888D02*
X007123Y000939D01*
X006868Y000644D01*
X010391Y000644D01*
X010411Y000644D01*
X010391Y000644D02*
X010096Y000959D01*
X010096Y002888D01*
X007123Y002888D01*
X006330Y001232D02*
X006330Y001208D01*
X004742Y006110D02*
X004718Y006110D01*
D22*
X004728Y006269D03*
X004728Y005949D03*
X005901Y004191D03*
X005901Y003871D03*
X006501Y003871D03*
X006501Y004191D03*
X007228Y004189D03*
X007228Y003869D03*
X010098Y006129D03*
X010098Y006449D03*
X010818Y006449D03*
X010818Y006129D03*
D23*
X010970Y002270D02*
X010970Y001990D01*
X010635Y001990D02*
X010635Y002270D01*
X012705Y002270D02*
X012705Y001990D01*
X013040Y001990D02*
X013040Y002270D01*
X006370Y002310D02*
X006370Y002030D01*
X006035Y002030D02*
X006035Y002310D01*
X004370Y002110D02*
X004370Y001830D01*
X004035Y001830D02*
X004035Y002110D01*
D24*
X004188Y001970D02*
X004212Y001970D01*
X006188Y002170D02*
X006212Y002170D01*
X010788Y002130D02*
X010812Y002130D01*
X012858Y002130D02*
X012882Y002130D01*
D25*
X012872Y002362D03*
X012872Y001902D03*
X010802Y001902D03*
X010802Y002362D03*
X006202Y002402D03*
X006202Y001942D03*
X004202Y001742D03*
X004202Y002202D03*
D26*
X005900Y004030D03*
X006500Y004030D03*
X010100Y006290D03*
X010820Y006290D03*
D27*
X012023Y005069D03*
X012763Y005069D03*
X013484Y005079D03*
X014224Y005079D03*
X013854Y004289D03*
X012393Y004279D03*
D28*
X009629Y007745D02*
X009679Y007795D01*
X009755Y007795D01*
X009679Y007795D02*
X009629Y007845D01*
X009604Y007845D01*
X009604Y007745D02*
X009629Y007745D01*
X009649Y008225D02*
X009675Y008225D01*
X009675Y008325D01*
X009649Y008225D02*
X009549Y008325D01*
X009524Y008325D01*
X009524Y008225D01*
X010334Y008665D02*
X010485Y008765D01*
X010485Y008665D02*
X010334Y008765D01*
D29*
X010253Y000919D02*
X006986Y000919D01*
M02*
