%
M48
M72
T01C0.0120
T02C0.0400
%
T01
X4190Y1120
X4690Y3040
X6640Y4610
X7680Y3770
X8980Y4470
X10120Y4350
X11780Y5430
X11780Y5710
X11780Y5990
X11500Y6280
X12080Y5710
X12080Y5430
X13340Y5430
X13340Y5710
X13340Y5990
X13640Y5710
X13640Y5430
X12580Y7650
X12940Y8550
X11180Y8650
X11190Y8090
X10440Y6850
X9520Y7090
X8860Y6850
X7750Y6300
X7750Y5770
X5180Y7750
X5800Y8210
X6280Y8330
X7000Y8330
X7790Y8260
X8820Y7950
X9720Y9590
X11500Y9800
X6100Y9210
X4740Y5460
X8940Y1910
X11850Y2030
X11860Y1130
T02
X3772Y5182
X3772Y6322
M30
