G75*
G70*
%OFA0B0*%
%FSLAX24Y24*%
%IPPOS*%
%LPD*%
%AMOC8*
5,1,8,0,0,1.08239X$1,22.5*
%
%ADD10R,0.0394X0.0394*%
%ADD11R,0.0158X0.0355*%
%ADD12R,0.0355X0.0158*%
%ADD13R,0.0257X0.0512*%
%ADD14C,0.0780*%
%ADD15R,0.0316X0.0394*%
%ADD16R,0.0394X0.0316*%
%ADD17R,0.0316X0.0709*%
%ADD18R,0.0355X0.0355*%
%ADD19R,0.0434X0.0473*%
%ADD20R,0.0290X0.0540*%
%ADD21R,0.0434X0.0591*%
%ADD22R,0.0217X0.0709*%
%ADD23R,0.0975X0.0788*%
%ADD24R,0.0621X0.0867*%
%ADD25R,0.0453X0.0827*%
%ADD26C,0.0434*%
%ADD27R,0.0440X0.0440*%
%ADD28R,0.0540X0.0540*%
D10*
X006800Y006550D03*
X010020Y008220D03*
D11*
X010118Y007433D03*
X010315Y007433D03*
X010512Y007433D03*
X009921Y007433D03*
X009724Y007433D03*
X009527Y007433D03*
X007784Y007889D03*
X007587Y007889D03*
X007390Y007889D03*
X007193Y007889D03*
X006996Y007889D03*
X006800Y007889D03*
X006603Y007889D03*
X006406Y007889D03*
X006209Y007889D03*
X006012Y007889D03*
X005815Y007889D03*
X005815Y005211D03*
X006012Y005211D03*
X006209Y005211D03*
X006406Y005211D03*
X006603Y005211D03*
X006800Y005211D03*
X006996Y005211D03*
X007193Y005211D03*
X007390Y005211D03*
X007587Y005211D03*
X007784Y005211D03*
X009527Y009007D03*
X009724Y009007D03*
X009921Y009007D03*
X010118Y009007D03*
X010315Y009007D03*
X010512Y009007D03*
D12*
X010807Y008712D03*
X010807Y008515D03*
X010807Y008318D03*
X010807Y008122D03*
X010807Y007925D03*
X010807Y007728D03*
X009232Y007728D03*
X009232Y007925D03*
X009232Y008122D03*
X009232Y008318D03*
X009232Y008515D03*
X009232Y008712D03*
X008138Y007534D03*
X008138Y007337D03*
X008138Y007141D03*
X008138Y006944D03*
X008138Y006747D03*
X008138Y006550D03*
X008138Y006353D03*
X008138Y006156D03*
X008138Y005959D03*
X008138Y005763D03*
X008138Y005566D03*
X005461Y005566D03*
X005461Y005763D03*
X005461Y005959D03*
X005461Y006156D03*
X005461Y006353D03*
X005461Y006550D03*
X005461Y006747D03*
X005461Y006944D03*
X005461Y007141D03*
X005461Y007337D03*
X005461Y007534D03*
D13*
X011475Y002642D03*
X012224Y002642D03*
X012224Y001618D03*
X011850Y001618D03*
X011475Y001618D03*
X005494Y001578D03*
X005120Y001578D03*
X004745Y001578D03*
X004745Y002602D03*
X005494Y002602D03*
D14*
X003772Y005182D03*
X003772Y006322D03*
D15*
X007794Y009060D03*
X008305Y009060D03*
X008754Y009620D03*
X009265Y009620D03*
X011514Y009420D03*
X012025Y009420D03*
X012025Y008820D03*
X011514Y008820D03*
X011514Y008220D03*
X012025Y008220D03*
X012025Y007620D03*
X011514Y007620D03*
X011514Y007020D03*
X012025Y007020D03*
X012244Y006520D03*
X012755Y006520D03*
X012755Y006000D03*
X012244Y006000D03*
X013614Y006000D03*
X014125Y006000D03*
X014125Y006520D03*
X013614Y006520D03*
X009705Y003780D03*
X009194Y003780D03*
X009295Y005580D03*
X008784Y005580D03*
X006585Y001220D03*
X006074Y001220D03*
D16*
X005900Y003774D03*
X005900Y004286D03*
X006500Y004286D03*
X006500Y003774D03*
X007230Y003774D03*
X007230Y004286D03*
X004730Y005854D03*
X004730Y006366D03*
X010100Y006546D03*
X010100Y006034D03*
X010820Y006034D03*
X010820Y006546D03*
D17*
X010592Y004950D03*
X010120Y004950D03*
X009647Y004950D03*
D18*
X010254Y003780D03*
X010845Y003780D03*
X008335Y009620D03*
X007744Y009620D03*
D19*
X004200Y001635D03*
X004200Y002305D03*
X006200Y002505D03*
X006200Y001835D03*
X010800Y001795D03*
X010800Y002465D03*
X012870Y002465D03*
X012870Y001795D03*
D20*
X005402Y004040D03*
X005077Y004040D03*
D21*
X012019Y005107D03*
X012767Y005107D03*
X013480Y005117D03*
X014228Y005117D03*
X013854Y004251D03*
X012393Y004240D03*
D22*
X009131Y002592D03*
X008875Y002592D03*
X008620Y002592D03*
X008364Y002592D03*
X008108Y002592D03*
D23*
X007458Y001490D03*
X009781Y001490D03*
D24*
X009604Y002396D03*
X007635Y002396D03*
D25*
X008314Y001490D03*
X008925Y001490D03*
D26*
X008200Y003880D03*
X008200Y004380D03*
X008200Y004880D03*
X008800Y004880D03*
X005150Y004880D03*
X005150Y008500D03*
D27*
X006100Y009690D03*
X006600Y009690D03*
X007100Y009690D03*
D28*
X011960Y003410D03*
X012680Y003410D03*
X013540Y003410D03*
X014140Y003410D03*
M02*
